<svg width="28" height="26" viewBox="0 0 28 26" fill="none" xmlns="http://www.w3.org/2000/svg">
<path d="M10.2715 0.855137C7.55265 1.75634 5.20792 3.46685 3.58171 5.73542C1.9555 8.00399 1.13353 10.7111 1.23653 13.459C1.33953 16.2069 2.36208 18.8508 4.15397 21.0024C5.94586 23.154 8.41265 24.6999 11.192 25.413C13.4453 25.9685 15.8061 25.9929 18.0714 25.484C20.1236 25.0436 22.0209 24.1015 23.5775 22.75C25.1976 21.3004 26.3735 19.4563 26.9789 17.4159C27.6369 15.1971 27.754 12.8638 27.3212 10.595H14.6678V15.6101H21.9958C21.8494 16.41 21.5355 17.1734 21.0731 17.8547C20.6106 18.536 20.0091 19.1212 19.3044 19.5751C18.4096 20.1407 17.4009 20.5212 16.3431 20.6923C15.2821 20.8808 14.1939 20.8808 13.133 20.6923C12.0577 20.4799 11.0404 20.0558 10.1461 19.4472C8.70928 18.4754 7.63045 17.0948 7.06352 15.5025C6.48701 13.8803 6.48701 12.1217 7.06352 10.4995C7.46707 9.36245 8.13419 8.32716 9.01509 7.47092C10.0232 6.47306 11.2994 5.75979 12.7039 5.40935C14.1083 5.05892 15.5866 5.08487 16.9766 5.48436C18.0624 5.80284 19.0554 6.35929 19.8763 7.10936C20.7026 6.32394 21.5274 5.53649 22.3508 4.74701C22.776 4.32248 23.2395 3.91826 23.6583 3.48357C22.4052 2.36939 20.9343 1.50241 19.3299 0.932325C16.4083 -0.0812897 13.2116 -0.10853 10.2715 0.855137Z" fill="white"/>
<path d="M10.2715 0.855148C13.2113 -0.109174 16.4081 -0.0826512 19.3299 0.930304C20.9346 1.50426 22.4048 2.37541 23.6561 3.49374C23.231 3.92843 22.7824 4.33468 22.3487 4.75718C21.5239 5.54395 20.6997 6.32801 19.8763 7.10937C19.0554 6.3593 18.0624 5.80285 16.9766 5.48437C15.587 5.08348 14.1088 5.05603 12.704 5.40503C11.2992 5.75403 10.0222 6.46599 9.01297 7.4628C8.13207 8.31905 7.46495 9.35434 7.0614 10.4914L2.65442 7.23124C4.23185 4.24238 6.96308 1.95613 10.2715 0.855148Z" fill="#E33629"/>
<path d="M1.48516 10.4609C1.72203 9.33922 2.11529 8.25297 2.65441 7.2312L7.06139 10.4995C6.48488 12.1217 6.48488 13.8803 7.06139 15.5025C5.5931 16.5858 4.12411 17.6745 2.65441 18.7687C1.30478 16.2018 0.89317 13.2772 1.48516 10.4609Z" fill="#F8BD00"/>
<path d="M14.6678 10.593H27.3211C27.754 12.8618 27.6369 15.1952 26.9789 17.414C26.3735 19.4543 25.1975 21.2984 23.5774 22.748C22.1552 21.6877 20.7266 20.6355 19.3044 19.5752C20.0095 19.1208 20.6113 18.535 21.0738 17.853C21.5363 17.171 21.8499 16.4067 21.9958 15.6061H14.6678C14.6657 13.9365 14.6678 12.2647 14.6678 10.593Z" fill="#587DBD"/>
<path d="M2.65222 18.7687C4.12192 17.6854 5.59092 16.5966 7.0592 15.5024C7.62726 17.0953 8.70763 18.476 10.146 19.4471C11.0431 20.053 12.0626 20.4736 13.1393 20.6821C14.2002 20.8706 15.2884 20.8706 16.3494 20.6821C17.4072 20.511 18.4159 20.1305 19.3107 19.5649C20.733 20.6253 22.1616 21.6774 23.5838 22.7378C22.0274 24.09 20.1301 25.0328 18.0777 25.4738C15.8124 25.9827 13.4516 25.9583 11.1983 25.4028C9.41619 24.9481 7.75156 24.1466 6.30876 23.0485C4.78165 21.8901 3.53437 20.4302 2.65222 18.7687Z" fill="#319F43"/>
</svg>
