<svg width="31" height="28" viewBox="0 0 31 28" fill="none" xmlns="http://www.w3.org/2000/svg">
<path d="M30.2257 14C30.2257 6.26806 23.5083 0 15.2221 0C6.93589 0 0.218506 6.26806 0.218506 14C0.218506 20.9877 5.70513 26.7797 12.8778 27.8299V18.0469H9.06828V14H12.8778V10.9156C12.8778 7.40687 15.1178 5.46875 18.5449 5.46875C20.1864 5.46875 21.9034 5.74219 21.9034 5.74219V9.1875H20.0115C18.1477 9.1875 17.5664 10.2667 17.5664 11.3739V14H21.7276L21.0624 18.0469H17.5664V27.8299C24.739 26.7797 30.2257 20.9879 30.2257 14Z" fill="#1877F2"/>
<path d="M21.0624 18.0469L21.7276 14H17.5665V11.3739C17.5665 10.2666 18.1478 9.1875 20.0116 9.1875H21.9035V5.74219C21.9035 5.74219 20.1865 5.46875 18.5449 5.46875C15.1179 5.46875 12.8779 7.40688 12.8779 10.9156V14H9.06836V18.0469H12.8779V27.8299C13.6534 27.9433 14.4372 28.0002 15.2222 28C16.0072 28.0002 16.791 27.9433 17.5665 27.8299V18.0469H21.0624Z" fill="white"/>
</svg>
